<?xml version="1.0" standalone="no"?>
<!DOCTYPE svg PUBLIC "-//W3C//DTD SVG 20010904//EN"
 "http://www.w3.org/TR/2001/REC-SVG-20010904/DTD/svg10.dtd">
<svg version="1.0" xmlns="http://www.w3.org/2000/svg"
 width="250.000000pt" height="282.000000pt" viewBox="0 0 250.000000 282.000000"
 preserveAspectRatio="xMidYMid meet">

<g transform="translate(0.000000,282.000000) scale(0.100000,-0.100000)"
fill="#000000" stroke="none">
<path d="M1435 2748 c8 -34 28 -72 80 -149 76 -115 102 -193 115 -357 12 -145
7 -191 -35 -337 -26 -87 -53 -139 -135 -258 -96 -140 -267 -344 -391 -469
-141 -142 -345 -376 -417 -480 -113 -162 -154 -268 -197 -506 -19 -106 5 -177
39 -117 26 44 179 193 261 254 87 65 189 131 201 131 4 0 37 15 73 34 59 30
193 81 321 123 25 8 110 27 190 44 397 80 479 99 525 119 89 39 229 205 270
321 19 53 28 139 15 139 -5 0 -67 -29 -137 -64 -163 -81 -176 -87 -363 -153
-227 -80 -370 -117 -370 -95 0 8 67 42 220 112 134 61 349 249 386 337 8 17
18 34 23 37 19 12 70 154 79 219 6 51 5 88 -6 145 -8 43 -15 88 -17 102 -1 14
-4 32 -8 40 -3 8 -9 28 -14 44 -14 44 -28 42 -48 -6 -19 -48 -126 -212 -216
-330 -100 -131 -412 -448 -441 -448 -9 0 14 29 155 194 217 253 326 486 343
733 9 136 -6 212 -66 338 -39 82 -60 112 -107 156 -87 80 -264 179 -320 179
-11 0 -13 -8 -8 -32z"/>
<path d="M894 2398 c-3 -5 5 -19 19 -32 27 -25 117 -145 163 -216 44 -69 73
-136 94 -219 22 -81 34 -102 142 -249 l71 -94 24 48 c39 80 73 189 73 236 -1
163 -184 409 -364 489 -52 23 -214 50 -222 37z"/>
<path d="M850 2280 c-6 -12 -9 -34 -5 -49 5 -22 0 -36 -20 -59 -35 -42 -101
-56 -200 -41 -56 9 -86 8 -121 0 -67 -17 -139 -56 -174 -95 -23 -24 -43 -36
-73 -40 -60 -9 -103 -38 -128 -88 -26 -50 -50 -144 -42 -164 7 -18 43 -10 106
23 43 22 52 24 97 14 91 -20 218 -95 269 -160 49 -61 70 -131 86 -277 12 -115
12 -159 0 -305 -8 -94 -19 -177 -25 -184 -12 -15 2 -55 19 -55 5 0 26 21 47
48 44 54 180 201 435 469 185 193 210 225 194 248 -50 69 -118 167 -137 195
-33 50 -198 213 -249 247 -24 15 -48 31 -53 35 -6 4 -4 14 6 25 10 10 24 45
32 77 15 56 15 60 -7 104 -25 53 -41 62 -57 32z m-216 -291 c17 -16 -40 -29
-76 -18 -64 21 -65 21 -38 30 28 8 100 1 114 -12z"/>
</g>
</svg>
